<svg id="Calque_1" data-name="Calque 1" xmlns="http://www.w3.org/2000/svg" xmlns:xlink="http://www.w3.org/1999/xlink" viewBox="0 0 258.35 270.04"><defs><style>.cls-1{fill:url(#linear-gradient);}.cls-2{fill:url(#linear-gradient-2);}.cls-3{fill:url(#linear-gradient-3);}.cls-4{fill:url(#linear-gradient-4);}.cls-5{fill:url(#linear-gradient-5);}.cls-6{fill:url(#linear-gradient-6);}.cls-7{fill:url(#linear-gradient-7);}.cls-8{fill:url(#linear-gradient-8);}.cls-9{fill:url(#linear-gradient-9);}.cls-10{fill:url(#linear-gradient-10);}.cls-11{fill:url(#linear-gradient-11);}.cls-12{fill:url(#linear-gradient-12);}.cls-13{fill:url(#linear-gradient-13);}.cls-14{fill:url(#linear-gradient-14);}.cls-15{fill:url(#linear-gradient-15);}</style><linearGradient id="linear-gradient" x1="-556.23" y1="793.25" x2="512.37" y2="-231.04" gradientUnits="userSpaceOnUse"><stop offset="0" stop-color="#fff"/><stop offset="0.23" stop-color="#fff"/><stop offset="0.41" stop-color="#c6c6c6"/><stop offset="0.59" stop-color="#ebebeb"/><stop offset="0.77" stop-color="#fff"/><stop offset="1" stop-color="#dcdcdc"/></linearGradient><linearGradient id="linear-gradient-2" x1="-113.07" y1="368.51" x2="321.99" y2="-48.52" xlink:href="#linear-gradient"/><linearGradient id="linear-gradient-3" x1="-556.24" y1="793.23" x2="-57.46" y2="315.13" xlink:href="#linear-gradient"/><linearGradient id="linear-gradient-4" x1="-54.04" y1="362.82" x2="369.33" y2="-42.99" xlink:href="#linear-gradient"/><linearGradient id="linear-gradient-5" x1="-520.07" y1="830.97" x2="548.53" y2="-193.32" xlink:href="#linear-gradient"/><linearGradient id="linear-gradient-6" x1="-9" y1="319.75" x2="324.33" y2="0.23" xlink:href="#linear-gradient"/><linearGradient id="linear-gradient-7" x1="-579.03" y1="769.46" x2="489.56" y2="-254.83" xlink:href="#linear-gradient"/><linearGradient id="linear-gradient-8" x1="-521.9" y1="829.06" x2="546.69" y2="-195.23" xlink:href="#linear-gradient"/><linearGradient id="linear-gradient-9" x1="-19.86" y1="326.49" x2="327.54" y2="-6.51" xlink:href="#linear-gradient"/><linearGradient id="linear-gradient-10" x1="-67.49" y1="372.05" x2="375.13" y2="-52.22" xlink:href="#linear-gradient"/><linearGradient id="linear-gradient-11" x1="-558.07" y1="791.32" x2="-80.05" y2="333.13" xlink:href="#linear-gradient"/><linearGradient id="linear-gradient-12" x1="-558.06" y1="791.34" x2="510.54" y2="-232.95" xlink:href="#linear-gradient"/><linearGradient id="linear-gradient-13" x1="-106.64" y1="358.67" x2="307.91" y2="-38.69" xlink:href="#linear-gradient"/><linearGradient id="linear-gradient-14" x1="-513.39" y1="837.94" x2="555.21" y2="-186.34" xlink:href="#linear-gradient"/><linearGradient id="linear-gradient-15" x1="-561.44" y1="787.82" x2="507.16" y2="-236.47" xlink:href="#linear-gradient"/></defs><path class="cls-1" d="M92.07,170.86h.12a18,18,0,0,0,2.41-.47C93.8,170.59,92.94,170.74,92.07,170.86Z" transform="translate(0 0.07)"/><path class="cls-2" d="M104.48,160a.64.64,0,0,1,0-.07v0A.34.34,0,0,1,104.48,160Z" transform="translate(0 0.07)"/><path class="cls-3" d="M104.5,159.88v0Z" transform="translate(0 0.07)"/><path class="cls-4" d="M157.67,159.83a.49.49,0,0,0,0,.12v-.12Z" transform="translate(0 0.07)"/><path class="cls-5" d="M170,170.87h.13c-.88-.12-1.73-.27-2.54-.46A18.34,18.34,0,0,0,170,170.87Z" transform="translate(0 0.07)"/><path class="cls-6" d="M157.69,160s0-.06,0-.09v0S157.69,160,157.69,160Z" transform="translate(0 0.07)"/><path class="cls-7" d="M3.08,169l0,.1C7.56,183.41,14.32,186.76,17,193.2c1.63,3.86,6.58,10.41,12.51,10.17a14.08,14.08,0,0,1,8.12,2.08c-.88-2.31-1.7-4.71-2.45-7.25.08-.09.16-.16.24-.26l0,0s-.9-9.73-2.21-21.17c.85,3.42,1.71,6.9,2.57,10.4,6.32,25.66,15.61,41.46,43.59,61.09,1.83,1.29,3.59,2.47,5.31,3.59A3.26,3.26,0,0,0,88,248.13l-9.72-74.84a3.28,3.28,0,0,0-2.53-2.82,35.53,35.53,0,0,1-18.37-9.78l.78-3.87a21.21,21.21,0,0,1-.84-15h0A13.92,13.92,0,0,1,49,135.48h4.08a33.44,33.44,0,0,1,4.59-4.26c1.59-5.08,3.21-10.27,4.81-15.36A288.89,288.89,0,0,1,52.85,72c-1.65-12.67-19.21-15.18-24.2-3.43a77.77,77.77,0,0,0-4.06,12.09c-4.72,19.55-3,35.91.33,53.32-2.3-2.85-5.34-5.51-9.08-6.31-11.67-2.51-19,12.74-14.48,34.7C1.88,164.81,2.46,167,3.08,169Z" transform="translate(0 0.07)"/><path class="cls-8" d="M166.28,170.86c-.87-.12-1.73-.27-2.53-.46a18,18,0,0,0,2.41.47Z" transform="translate(0 0.07)"/><path class="cls-9" d="M153.86,159.92v0a.64.64,0,0,1,0,.07A.34.34,0,0,1,153.86,159.92Z" transform="translate(0 0.07)"/><path class="cls-10" d="M153.85,159.83v0Z" transform="translate(0 0.07)"/><path class="cls-11" d="M100.67,159.88V160a.49.49,0,0,1,0-.12Z" transform="translate(0 0.07)"/><path class="cls-12" d="M88.24,170.86h.12a18.42,18.42,0,0,0,2.42-.47C90,170.59,89.12,170.74,88.24,170.86Z" transform="translate(0 0.07)"/><path class="cls-13" d="M100.66,160s0,0,0-.06v0A.28.28,0,0,0,100.66,160Z" transform="translate(0 0.07)"/><path class="cls-14" d="M205.26,135.48h4.08A13.92,13.92,0,0,1,201,141.8h0a21.21,21.21,0,0,1-.84,15l.78,3.87a35.53,35.53,0,0,1-18.37,9.78,3.28,3.28,0,0,0-2.53,2.82l-9.72,74.84a3.25,3.25,0,0,0,2.95,3.66c1.71-1.12,3.46-2.3,5.28-3.57,28-19.63,37.26-35.43,43.58-61.09q.9-3.66,1.8-7.28c-1.11,10-1.85,18.05-1.85,18.05l0,0c.17.21.33.36.5.56-.76,2.56-1.6,5-2.5,7.3a13.9,13.9,0,0,1,8.69-2.43c5.93.24,10.88-6.31,12.51-10.17,2.72-6.44,9.48-9.79,13.92-24.06l0-.1c.62-2,1.2-4.23,1.72-6.72,4.54-22-2.81-37.21-14.48-34.7-3.74.8-6.78,3.46-9.08,6.31,3.29-17.41,5-33.77.33-53.32a77.77,77.77,0,0,0-4.06-12.09c-5-11.75-22.55-9.24-24.2,3.43a288.89,288.89,0,0,1-9.64,43.91c1.59,5.09,3.22,10.28,4.81,15.36A33.44,33.44,0,0,1,205.26,135.48Z" transform="translate(0 0.07)"/><path class="cls-15" d="M83,122.81c10.72,2.36,16.18,11,18.8,17.2a32,32,0,0,1,1.51,4.23c.24.82.41,1.48.51,1.93l0,.15c.07.31.11.52.11.52l0,0s0,.06,0,.09a38.07,38.07,0,0,1,.61,12.65c0,.24,0,.41,0,.41s-.06,6-.9,8.17c-.71,1.85-9,2.59-11.33,2.76h0s-1,.2-2.72.36l11.62,89.55a3.37,3.37,0,0,0,.09.34,3.3,3.3,0,0,0,1.69,2.18,59.17,59.17,0,0,0,20.07,6c1.42.18,2.87.33,4.41.44v.2h.32c.49,0,.94-.06,1.42-.09s.94.07,1.43.09h.32v-.2c2-.14,3.78-.34,5.55-.59a59,59,0,0,0,18.92-5.87,3.26,3.26,0,0,0,1.74-2.36c0-.06,0-.1.05-.16l11.62-89.55c-1.69-.16-2.72-.36-2.72-.36h0c-2.32-.17-10.62-.91-11.33-2.76-.84-2.15-.9-8.17-.9-8.17s0-.17,0-.41a38.07,38.07,0,0,1,.61-12.65s0-.06,0-.09,0,0,0,0,0-.21.11-.52l0-.15c.1-.45.27-1.11.51-1.93a32,32,0,0,1,1.51-4.23c2.62-6.24,8.08-14.84,18.8-17.2a26.27,26.27,0,0,1,3.37-.48c7.38-21.66,21.61-76.33,8.45-98.67l-2.92-4.94,1.84-1.09c-.72-.47-1.43-1-2.17-1.42h0a0,0,0,0,1,0,0,107.19,107.19,0,0,0-53-16.12V-.07c-.59,0-1.16.06-1.75.07S128-.07,127.43-.07V.07a107.19,107.19,0,0,0-53,16.12,0,0,0,0,1,0,0h0c-.74.46-1.44.95-2.17,1.42l1.85,1.09-2.92,4.94C58,46,72.22,100.67,79.6,122.33A26.27,26.27,0,0,1,83,122.81Z" transform="translate(0 0.07)"/></svg>